<?xml version="1.0" encoding="UTF-8" standalone="no"?>
<!-- Created with Inkscape (http://www.inkscape.org/) -->

<svg
   xmlns:dc="http://purl.org/dc/elements/1.1/"
   xmlns:cc="http://creativecommons.org/ns#"
   xmlns:rdf="http://www.w3.org/1999/02/22-rdf-syntax-ns#"
   xmlns:svg="http://www.w3.org/2000/svg"
   xmlns="http://www.w3.org/2000/svg"
   xmlns:sodipodi="http://sodipodi.sourceforge.net/DTD/sodipodi-0.dtd"
   xmlns:inkscape="http://www.inkscape.org/namespaces/inkscape"
   width="297mm"
   height="210mm"
   viewBox="0 0 1052.3622 744.09448"
   id="svg2"
   version="1.1"
   inkscape:version="0.91 r13725"
   sodipodi:docname="memoriaTemplate.svg">
  <defs
     id="defs4" />
  <sodipodi:namedview
     id="base"
     pagecolor="#ffffff"
     bordercolor="#666666"
     borderopacity="1.0"
     inkscape:pageopacity="0.0"
     inkscape:pageshadow="2"
     inkscape:zoom="0.12374369"
     inkscape:cx="-116.33665"
     inkscape:cy="1997.9996"
     inkscape:document-units="px"
     inkscape:current-layer="layer1"
     showgrid="false"
     inkscape:snap-global="false"
     inkscape:window-width="1535"
     inkscape:window-height="876"
     inkscape:window-x="65"
     inkscape:window-y="24"
     inkscape:window-maximized="1" />
  <metadata
     id="metadata7">
    <rdf:RDF>
      <cc:Work
         rdf:about="">
        <dc:format>image/svg+xml</dc:format>
        <dc:type
           rdf:resource="http://purl.org/dc/dcmitype/StillImage" />
        <dc:title />
      </cc:Work>
    </rdf:RDF>
  </metadata>
  <g
     inkscape:label="Camada 1"
     inkscape:groupmode="layer"
     id="layer1"
     transform="translate(0,-308.26772)">
    <g
       id="g4236"
       inkscape:export-filename="/home/andersonvale/Documentos/Godot/projetos_3_4_4/Eu-presidente-inteligados/src/Game/Imagens/memoria/carta1.png"
       inkscape:export-xdpi="90"
       inkscape:export-ydpi="90">
      <rect
         y="347.36176"
         x="36.428013"
         height="185.71428"
         width="125.71429"
         id="rect4234"
         style="fill:#e3dbdb;stroke:none;stroke-width:10.80000019;stroke-linecap:round;stroke-linejoin:round;stroke-miterlimit:4;stroke-dasharray:none" />
      <text
         sodipodi:linespacing="125%"
         id="text4174"
         y="489.7356"
         x="66.908928"
         style="font-style:normal;font-weight:normal;font-size:155.26231384px;line-height:125%;font-family:sans-serif;letter-spacing:0px;word-spacing:0px;fill:#ff0000;fill-opacity:1;stroke:none;stroke-width:1px;stroke-linecap:butt;stroke-linejoin:miter;stroke-opacity:1;"
         xml:space="preserve"><tspan
           style="font-style:normal;font-variant:normal;font-weight:bold;font-stretch:normal;font-family:Purisa;-inkscape-font-specification:'Purisa Bold';fill:#ff0000;"
           y="489.7356"
           x="66.908928"
           id="tspan4176"
           sodipodi:role="line">1</tspan></text>
      <text
         xml:space="preserve"
         style="font-style:normal;font-weight:normal;font-size:155.26231384px;line-height:125%;font-family:sans-serif;letter-spacing:0px;word-spacing:0px;fill:#ff0000;fill-opacity:1;stroke:none;stroke-width:1px;stroke-linecap:butt;stroke-linejoin:miter;stroke-opacity:1;"
         x="66.908928"
         y="489.7356"
         id="text4184"
         sodipodi:linespacing="125%"><tspan
           sodipodi:role="line"
           id="tspan4186"
           x="66.908928"
           y="489.7356"
           style="font-style:normal;font-variant:normal;font-weight:bold;font-stretch:normal;font-family:Purisa;-inkscape-font-specification:'Purisa Bold';fill:#ff0000;">1</tspan></text>
      <path
         transform="translate(0,308.26772)"
         id="rect4171"
         d="M 36.427734 39.09375 L 36.427734 224.80859 L 162.14258 224.80859 L 162.14258 39.09375 L 36.427734 39.09375 z M 43.5 46.166016 L 155.07227 46.166016 L 155.07227 217.73828 L 43.5 217.73828 L 43.5 46.166016 z "
         style="fill:#501616;stroke:none;stroke-width:10.8;stroke-linecap:round;stroke-linejoin:miter;stroke-miterlimit:4;stroke-dasharray:none" />
    </g>
    <g
       id="g4244"
       inkscape:export-filename="/home/andersonvale/Documentos/Godot/projetos_3_4_4/Eu-presidente-inteligados/src/Game/Imagens/memoria/carta2.png"
       inkscape:export-xdpi="90"
       inkscape:export-ydpi="90">
      <rect
         style="fill:#e3dbdb;stroke:none;stroke-width:10.80000019;stroke-linecap:round;stroke-linejoin:round;stroke-miterlimit:4;stroke-dasharray:none"
         id="rect4138"
         width="125.71429"
         height="185.71428"
         x="206.71428"
         y="347.36218" />
      <text
         transform="scale(0.87997433,1.1363968)"
         sodipodi:linespacing="125%"
         id="text4188"
         y="430.95474"
         x="251.13155"
         style="font-style:normal;font-weight:normal;font-size:136.62684631px;line-height:125%;font-family:sans-serif;letter-spacing:0px;word-spacing:0px;fill:#d45500;fill-opacity:1;stroke:none;stroke-width:1px;stroke-linecap:butt;stroke-linejoin:miter;stroke-opacity:1;"
         xml:space="preserve"><tspan
           style="font-style:normal;font-variant:normal;font-weight:bold;font-stretch:normal;font-family:Purisa;-inkscape-font-specification:'Purisa Bold';fill:#d45500;"
           y="430.95474"
           x="251.13155"
           id="tspan4190"
           sodipodi:role="line">2</tspan></text>
      <path
         inkscape:connector-curvature="0"
         id="path4178"
         d="m 206.714,347.3619 0,185.71484 125.71484,0 0,-185.71484 -125.71484,0 z m 7.07227,7.07227 111.57226,0 0,171.57226 -111.57226,0 0,-171.57226 z"
         style="fill:#501616;stroke:none;stroke-width:10.80000019;stroke-linecap:round;stroke-linejoin:miter;stroke-miterlimit:4;stroke-dasharray:none" />
    </g>
    <g
       id="g4257"
       inkscape:export-filename="/home/andersonvale/Documentos/Godot/projetos_3_4_4/Eu-presidente-inteligados/src/Game/Imagens/memoria/carta4.png"
       inkscape:export-xdpi="90"
       inkscape:export-ydpi="90">
      <rect
         style="fill:#e3dbdb;stroke:none;stroke-width:10.80000019;stroke-linecap:round;stroke-linejoin:round;stroke-miterlimit:4;stroke-dasharray:none"
         id="rect4142"
         width="125.71429"
         height="185.71428"
         x="547.28571"
         y="347.36218" />
      <text
         xml:space="preserve"
         style="font-style:normal;font-weight:normal;font-size:155.26231384px;line-height:125%;font-family:sans-serif;letter-spacing:0px;word-spacing:0px;fill:#88aa00;fill-opacity:1;stroke:none;stroke-width:1px;stroke-linecap:butt;stroke-linejoin:miter;stroke-opacity:1;"
         x="563.90399"
         y="489.7356"
         id="text4196"
         sodipodi:linespacing="125%"><tspan
           sodipodi:role="line"
           id="tspan4198"
           x="563.90399"
           y="489.7356"
           style="font-style:normal;font-variant:normal;font-weight:bold;font-stretch:normal;font-family:Purisa;-inkscape-font-specification:'Purisa Bold';fill:#88aa00;">4</tspan></text>
      <path
         inkscape:connector-curvature="0"
         id="path4182"
         d="m 547.28542,347.3619 0,185.71484 125.71485,0 0,-185.71484 -125.71485,0 z m 7.07227,7.07227 111.57227,0 0,171.57226 -111.57227,0 0,-171.57226 z"
         style="fill:#501616;stroke:none;stroke-width:10.80000019;stroke-linecap:round;stroke-linejoin:miter;stroke-miterlimit:4;stroke-dasharray:none" />
    </g>
    <g
       id="g4263"
       inkscape:export-filename="/home/andersonvale/Documentos/Godot/projetos_3_4_4/Eu-presidente-inteligados/src/Game/Imagens/memoria/carta5.png"
       inkscape:export-xdpi="90"
       inkscape:export-ydpi="90">
      <rect
         y="347.36218"
         x="717.57141"
         height="185.71428"
         width="125.71429"
         id="rect4144"
         style="fill:#e3dbdb;stroke:none;stroke-width:10.80000019;stroke-linecap:round;stroke-linejoin:round;stroke-miterlimit:4;stroke-dasharray:none" />
      <text
         sodipodi:linespacing="125%"
         id="text4200"
         y="489.7356"
         x="733.60962"
         style="font-style:normal;font-weight:normal;font-size:155.26231384px;line-height:125%;font-family:sans-serif;letter-spacing:0px;word-spacing:0px;fill:#00aad4;fill-opacity:1;stroke:none;stroke-width:1px;stroke-linecap:butt;stroke-linejoin:miter;stroke-opacity:1;"
         xml:space="preserve"><tspan
           style="font-style:normal;font-variant:normal;font-weight:bold;font-stretch:normal;font-family:Purisa;-inkscape-font-specification:'Purisa Bold';fill:#00aad4;"
           y="489.7356"
           x="733.60962"
           id="tspan4202"
           sodipodi:role="line">5</tspan></text>
      <path
         inkscape:connector-curvature="0"
         id="path4184"
         d="m 717.57113,347.3619 0,185.71484 125.71484,0 0,-185.71484 -125.71484,0 z m 7.07226,7.07227 111.57227,0 0,171.57226 -111.57227,0 0,-171.57226 z"
         style="fill:#501616;stroke:none;stroke-width:10.80000019;stroke-linecap:round;stroke-linejoin:miter;stroke-miterlimit:4;stroke-dasharray:none" />
    </g>
    <g
       id="g4269"
       inkscape:export-filename="/home/andersonvale/Documentos/Godot/projetos_3_4_4/Eu-presidente-inteligados/src/Game/Imagens/memoria/carta6.png"
       inkscape:export-xdpi="90"
       inkscape:export-ydpi="90">
      <rect
         style="fill:#e3dbdb;stroke:none;stroke-width:10.80000019;stroke-linecap:round;stroke-linejoin:round;stroke-miterlimit:4;stroke-dasharray:none"
         id="rect4146"
         width="125.71429"
         height="185.71428"
         x="887.85712"
         y="347.36218" />
      <text
         xml:space="preserve"
         style="font-style:normal;font-weight:normal;font-size:155.26231384px;line-height:125%;font-family:sans-serif;letter-spacing:0px;word-spacing:0px;fill:#0066ff;fill-opacity:1;stroke:none;stroke-width:1px;stroke-linecap:butt;stroke-linejoin:miter;stroke-opacity:1;"
         x="909.37616"
         y="489.7356"
         id="text4204"
         sodipodi:linespacing="125%"><tspan
           sodipodi:role="line"
           id="tspan4206"
           x="909.37616"
           y="489.7356"
           style="font-style:normal;font-variant:normal;font-weight:bold;font-stretch:normal;font-family:Purisa;-inkscape-font-specification:'Purisa Bold';fill:#0066ff;">6</tspan></text>
      <path
         inkscape:connector-curvature="0"
         id="path4186"
         d="m 887.85684,347.3619 0,185.71484 125.71486,0 0,-185.71484 -125.71486,0 z m 7.07226,7.07227 111.5723,0 0,171.57226 -111.5723,0 0,-171.57226 z"
         style="fill:#501616;stroke:none;stroke-width:10.80000019;stroke-linecap:round;stroke-linejoin:miter;stroke-miterlimit:4;stroke-dasharray:none" />
    </g>
    <g
       id="g4226"
       transform="translate(760,237.14286)"
       inkscape:export-filename="/home/andersonvale/Documentos/Godot/projetos_3_4_4/Eu-presidente-inteligados/src/Game/Imagens/memoria/back.png"
       inkscape:export-xdpi="90"
       inkscape:export-ydpi="90">
      <rect
         style="fill:#008000;stroke:none;stroke-width:10.80000019;stroke-linecap:round;stroke-linejoin:round;stroke-miterlimit:4;stroke-dasharray:none"
         id="rect4172"
         width="125.71429"
         height="185.71428"
         x="-212.14285"
         y="333.07648" />
      <path
         inkscape:connector-curvature="0"
         style="fill:#005522;stroke:none;stroke-width:10.80000019;stroke-linecap:round;stroke-linejoin:miter;stroke-miterlimit:4;stroke-dasharray:none"
         d="m -212.14313,333.0762 0,185.71484 125.714844,0 0,-185.71484 -125.714844,0 z m 7.07226,7.07227 111.572274,0 0,171.57226 -111.572274,0 0,-171.57226 z"
         id="path4192" />
      <text
         transform="scale(1.1922785,0.83873023)"
         sodipodi:linespacing="125%"
         id="text4194"
         y="569.95911"
         x="-169.24907"
         style="font-style:normal;font-weight:normal;font-size:149.81268311px;line-height:125%;font-family:sans-serif;letter-spacing:0px;word-spacing:0px;fill:#e2e3db;fill-opacity:1;stroke:none;stroke-width:1px;stroke-linecap:butt;stroke-linejoin:miter;stroke-opacity:1"
         xml:space="preserve"><tspan
           style="font-style:normal;font-variant:normal;font-weight:bold;font-stretch:normal;font-family:Purisa;-inkscape-font-specification:'Purisa Bold';fill:#e2e3db"
           y="569.95911"
           x="-169.24907"
           id="tspan4196"
           sodipodi:role="line">?</tspan></text>
    </g>
    <g
       id="g4250"
       inkscape:export-filename="/home/andersonvale/Documentos/Godot/projetos_3_4_4/Eu-presidente-inteligados/src/Game/Imagens/memoria/carta3.png"
       inkscape:export-xdpi="90"
       inkscape:export-ydpi="90">
      <rect
         y="347.36218"
         x="376.99997"
         height="185.71428"
         width="125.71429"
         id="rect4140"
         style="fill:#e3dbdb;stroke:none;stroke-width:10.80000019;stroke-linecap:round;stroke-linejoin:round;stroke-miterlimit:4;stroke-dasharray:none" />
      <text
         sodipodi:linespacing="125%"
         id="text4192"
         y="489.7356"
         x="388.13745"
         style="font-style:normal;font-weight:normal;font-size:155.26231384px;line-height:125%;font-family:sans-serif;letter-spacing:0px;word-spacing:0px;fill:#d4aa00;fill-opacity:1;stroke:none;stroke-width:1px;stroke-linecap:butt;stroke-linejoin:miter;stroke-opacity:1;"
         xml:space="preserve"><tspan
           style="font-style:normal;font-variant:normal;font-weight:bold;font-stretch:normal;font-family:Purisa;-inkscape-font-specification:'Purisa Bold';fill:#d4aa00;"
           y="489.7356"
           x="388.13745"
           id="tspan4194"
           sodipodi:role="line">3</tspan></text>
      <path
         inkscape:connector-curvature="0"
         id="path4180"
         d="m 376.99969,347.3619 0,185.71484 125.71485,0 0,-185.71484 -125.71485,0 z m 7.07227,7.07227 111.57227,0 0,171.57226 -111.57227,0 0,-171.57226 z"
         style="fill:#501616;stroke:none;stroke-width:10.80000019;stroke-linecap:round;stroke-linejoin:miter;stroke-miterlimit:4;stroke-dasharray:none" />
      <path
         transform="translate(0,308.26772)"
         inkscape:connector-curvature="0"
         id="path4200"
         d="m 384.93965,131.219 0,-84.852817 54.54824,0 54.54824,0 0,84.852817 0,84.85281 -54.54824,0 -54.54824,0 0,-84.85281 z m 66.09848,46.75862 c 14.7401,-7.51984 24.78504,-23.1879 24.79643,-38.6774 0.005,-6.94301 -6.78077,-17.46273 -14.15886,-21.94962 -5.41453,-3.29277 -5.76293,-4.0374 -2.97259,-6.35318 1.73845,-1.44278 5.91946,-6.10632 9.29115,-10.36343 6.32097,-7.980866 6.60577,-14.380138 0.74018,-16.630976 -3.25204,-1.247924 -55.90947,7.545638 -64.30988,10.739467 -6.08359,2.312979 -6.40266,3.590862 -2.26295,9.063109 2.7891,3.68687 3.96614,3.7662 21.41367,1.44322 10.15428,-1.35195 18.96293,-1.9575 19.57476,-1.34567 1.49465,1.49465 -11.34617,14.66701 -18.3868,18.86153 -6.23086,3.7121 -6.70052,9.67308 -1.04156,13.21977 2.55117,1.59892 5.2787,1.26449 10.67515,-1.3089 16.78208,-8.00282 26.80771,-2.69356 24.69252,13.07637 -1.30843,9.75507 -4.23812,13.39699 -14.5507,18.08808 -11.12571,5.06097 -19.1929,4.96462 -19.1929,-0.22923 0,-5.76386 -9.16082,-11.42357 -13.14209,-8.1194 -5.9053,4.90095 -2.29333,19.86679 5.79643,24.01694 6.13796,3.14885 23.60375,1.28233 33.03804,-3.53068 z"
         style="fill:#e3dbdb;fill-opacity:1;stroke:none;stroke-width:10.80000019;stroke-linecap:round;stroke-linejoin:miter;stroke-miterlimit:4;stroke-dasharray:none" />
    </g>
    <g
       id="g4275"
       inkscape:export-filename="/home/andersonvale/Documentos/Godot/projetos_3_4_4/Eu-presidente-inteligados/src/Game/Imagens/memoria/carta7.png"
       inkscape:export-xdpi="90"
       inkscape:export-ydpi="90">
      <rect
         y="569.59576"
         x="34.128212"
         height="185.71428"
         width="125.71429"
         id="rect4178"
         style="fill:#e3dbdb;stroke:none;stroke-width:10.80000019;stroke-linecap:round;stroke-linejoin:round;stroke-miterlimit:4;stroke-dasharray:none" />
      <text
         sodipodi:linespacing="125%"
         id="text4208"
         y="707.92853"
         x="56.807411"
         style="font-style:normal;font-weight:normal;font-size:155.26231384px;line-height:125%;font-family:sans-serif;letter-spacing:0px;word-spacing:0px;fill:#aa00d4;fill-opacity:1;stroke:none;stroke-width:1px;stroke-linecap:butt;stroke-linejoin:miter;stroke-opacity:1;"
         xml:space="preserve"><tspan
           style="font-style:normal;font-variant:normal;font-weight:bold;font-stretch:normal;font-family:Purisa;-inkscape-font-specification:'Purisa Bold';fill:#aa00d4;"
           y="707.92853"
           x="56.807411"
           id="tspan4210"
           sodipodi:role="line">7</tspan></text>
      <path
         inkscape:connector-curvature="0"
         style="fill:#501616;stroke:none;stroke-width:10.80000019;stroke-linecap:round;stroke-linejoin:miter;stroke-miterlimit:4;stroke-dasharray:none"
         d="m 34.12793,569.59548 0,185.71484 125.71485,0 0,-185.71484 -125.71485,0 z m 7.07227,7.07227 111.57227,0 0,171.57226 -111.57227,0 0,-171.57226 z"
         id="path4176" />
      <path
         transform="translate(0,308.26772)"
         inkscape:connector-curvature="0"
         id="path4204"
         d="m 42.157149,354.06416 0,-85.71429 55,0 55.000001,0 0,85.71429 0,85.71428 -55.000001,0 -55,0 0,-85.71428 z m 64.850861,43.92857 c 3.2509,-5.0735 18.00628,-74.91292 18.00628,-85.22641 0,-2.07939 -1.00074,-5.20947 -2.22386,-6.95573 -2.8861,-4.12048 -7.52172,-4.12726 -31.812155,-0.0465 l -19.036017,3.19803 0.464588,18.32017 c 0.49116,19.36799 1.283965,21.52717 7.607446,20.71862 3.86833,-0.49462 6.247476,-7.99349 6.34794,-20.00818 l 0.08063,-9.64286 11.428572,0 c 8.693675,0 11.428575,0.46578 11.428575,1.9464 0,3.15824 -6.95902,36.49259 -9.882758,47.33932 -4.372577,16.22176 -6.140619,26.43116 -5.21557,30.11685 1.205799,4.80428 9.778838,4.96514 12.806328,0.24029 z"
         style="fill:#e3dbdb;fill-opacity:1;stroke:none;stroke-width:10.80000019;stroke-linecap:round;stroke-linejoin:miter;stroke-miterlimit:4;stroke-dasharray:none" />
    </g>
    <g
       id="g4282"
       inkscape:export-filename="/home/andersonvale/Documentos/Godot/projetos_3_4_4/Eu-presidente-inteligados/src/Game/Imagens/memoria/carta8.png"
       inkscape:export-xdpi="90"
       inkscape:export-ydpi="90">
      <rect
         style="fill:#e3dbdb;stroke:none;stroke-width:10.80000019;stroke-linecap:round;stroke-linejoin:round;stroke-miterlimit:4;stroke-dasharray:none"
         id="rect4180"
         width="125.71429"
         height="185.71428"
         x="204.41393"
         y="569.59576" />
      <text
         xml:space="preserve"
         style="font-style:normal;font-weight:normal;font-size:155.26231384px;line-height:125%;font-family:sans-serif;letter-spacing:0px;word-spacing:0px;fill:#ff5599;fill-opacity:1;stroke:none;stroke-width:1px;stroke-linecap:butt;stroke-linejoin:miter;stroke-opacity:1;"
         x="226.51305"
         y="707.92853"
         id="text4212"
         sodipodi:linespacing="125%"><tspan
           sodipodi:role="line"
           id="tspan4214"
           x="226.51305"
           y="707.92853"
           style="font-style:normal;font-variant:normal;font-weight:bold;font-stretch:normal;font-family:Purisa;-inkscape-font-specification:'Purisa Bold';fill:#ff5599;">8</tspan></text>
      <path
         inkscape:connector-curvature="0"
         id="path4188"
         d="m 204.41364,569.59548 0,185.71484 125.71485,0 0,-185.71484 -125.71485,0 z m 7.07227,7.07227 111.57227,0 0,171.57226 -111.57227,0 0,-171.57226 z"
         style="fill:#501616;stroke:none;stroke-width:10.80000019;stroke-linecap:round;stroke-linejoin:miter;stroke-miterlimit:4;stroke-dasharray:none" />
      <path
         transform="translate(0,308.26772)"
         inkscape:connector-curvature="0"
         id="path4206"
         d="m 212.15715,354.06416 0,-85.71429 55,0 55,0 0,85.71429 0,85.71428 -55,0 -55,0 0,-85.71428 z m 73.37591,45.32429 c 4.56811,-3.22978 8.05984,-10.33157 8.0387,-16.34984 -0.0164,-4.66463 -5.26078,-16.20404 -10.51898,-23.14522 -4.39306,-5.79912 -4.56236,-5.50665 10.14417,-17.52379 11.31698,-9.24744 15.39213,-15.18151 13.84638,-20.16256 -4.41233,-14.21842 -22.69997,-21.30636 -41.31475,-16.0128 -15.74465,4.47737 -25.10111,13.64805 -25.25436,24.75293 -0.0944,6.83777 1.84114,10.73515 9.05631,18.23595 l 5.61112,5.83324 -4.87756,7.24802 c -8.10513,12.04418 -8.57105,14.7943 -3.78495,22.34118 4.4603,7.03318 15.29412,15.81005 22.10658,17.90935 5.49241,1.69252 11.76931,0.53456 16.94734,-3.12646 z"
         style="fill:#e3dbdb;fill-opacity:1;stroke:none;stroke-width:10.80000019;stroke-linecap:round;stroke-linejoin:miter;stroke-miterlimit:4;stroke-dasharray:none" />
    </g>
    <g
       id="g4289"
       inkscape:export-filename="/home/andersonvale/Documentos/Godot/projetos_3_4_4/Eu-presidente-inteligados/src/Game/Imagens/memoria/carta9.png"
       inkscape:export-xdpi="90"
       inkscape:export-ydpi="90">
      <rect
         y="569.59576"
         x="374.69962"
         height="185.71428"
         width="125.71429"
         id="rect4182"
         style="fill:#e3dbdb;stroke:none;stroke-width:10.80000019;stroke-linecap:round;stroke-linejoin:round;stroke-miterlimit:4;stroke-dasharray:none" />
      <text
         sodipodi:linespacing="125%"
         id="text4216"
         y="707.92853"
         x="390.15775"
         style="font-style:normal;font-weight:normal;font-size:155.26231384px;line-height:125%;font-family:sans-serif;letter-spacing:0px;word-spacing:0px;fill:#008080;fill-opacity:1;stroke:none;stroke-width:1px;stroke-linecap:butt;stroke-linejoin:miter;stroke-opacity:1;"
         xml:space="preserve"><tspan
           style="font-style:normal;font-variant:normal;font-weight:bold;font-stretch:normal;font-family:Purisa;-inkscape-font-specification:'Purisa Bold';fill:#008080;"
           y="707.92853"
           x="390.15775"
           id="tspan4218"
           sodipodi:role="line">9</tspan></text>
      <path
         inkscape:connector-curvature="0"
         id="path4190"
         d="m 374.69933,569.59548 0,185.71485 125.71485,0 0,-185.71485 -125.71485,0 z m 7.07227,7.07227 111.57227,0 0,171.57227 -111.57227,0 0,-171.57227 z"
         style="fill:#501616;stroke:none;stroke-width:10.80000019;stroke-linecap:round;stroke-linejoin:miter;stroke-miterlimit:4;stroke-dasharray:none" />
      <path
         transform="translate(0,308.26772)"
         inkscape:connector-curvature="0"
         id="path4208"
         d="m 382.15715,354.06416 0,-85.71429 55,0 55,0 0,85.71429 0,85.71428 -55,0 -55,0 0,-85.71428 z m 70.68504,48.05518 c 2.42831,-1.77563 2.67537,-4.41655 2.83984,-30.35714 0.13372,-21.08894 0.8539,-31.86369 2.79408,-41.80247 2.42894,-12.44251 2.45003,-13.73383 0.29798,-18.24674 -2.86117,-5.99993 -7.99188,-8.13384 -17.33123,-7.20822 -7.56669,0.74994 -20.87586,6.01685 -27.97125,11.06921 -5.60449,3.99075 -12.71273,16.54902 -12.72963,22.48969 -0.0163,5.73123 3.14607,12.19248 7.43916,15.19948 4.81644,3.37357 21.16172,2.99458 28.31863,-0.6566 l 5.65738,-2.88618 0,24.31475 c 0,22.40999 0.22382,24.53857 2.85714,27.17189 3.37932,3.37933 4.30633,3.48737 7.8279,0.91233 z"
         style="fill:#e3dbdb;fill-opacity:1;stroke:none;stroke-width:10.80000019;stroke-linecap:round;stroke-linejoin:miter;stroke-miterlimit:4;stroke-dasharray:none" />
    </g>
  </g>
</svg>
